<?xml version="1.0" encoding="UTF-8"?>
<!DOCTYPE svg PUBLIC "-//W3C//DTD SVG 1.1//EN" "http://www.w3.org/Graphics/SVG/1.1/DTD/svg11.dtd">
<svg version="1.1" xmlns="http://www.w3.org/2000/svg" xmlns:xlink="http://www.w3.org/1999/xlink" x="0" y="0" width="50" height="50" viewBox="0, 0, 50, 50">
  <g id="Layer_1">
    <path d="M5.701,42.262 C5.981,34.955 10.942,32.65 14.298,26.984 C16.562,23.163 20.035,20.014 22.636,16.43 C25.669,12.25 29.313,7.319 33.891,4.67 C40.366,0.923 46.215,8.638 45.251,12.359 C44.454,15.434 38.353,20.187 37.122,22.561 C35.317,26.043 27.656,36.722 24.355,38.845 C22.682,39.92 21.959,42.02 20.239,43.016 C19.148,43.647 10.347,46.711 9.557,46.584 C7.749,46.294 6.211,45.076 5.857,43.368" fill="#FFFFFF"/>
    <path d="M6.919,36.662 C15.535,26.007 23.454,14.323 33.293,4.658" fill-opacity="0" stroke="#4A4A4A" stroke-width="1" stroke-linecap="round" stroke-linejoin="round"/>
    <path d="M19.637,44.367 C28.988,35.089 37.971,23.407 46.337,13.544" fill-opacity="0" stroke="#4A4A4A" stroke-width="1" stroke-linecap="round" stroke-linejoin="round"/>
    <path d="M33.66,4.54 C42.221,0.337 47.015,5.365 46.582,13.308" fill-opacity="0" stroke="#4A4A4A" stroke-width="1" stroke-linecap="round" stroke-linejoin="round"/>
    <path d="M6.552,37.251 C6.6,41.212 5.335,45.058 4.391,48.85" fill-opacity="0" stroke="#4A4A4A" stroke-width="1" stroke-linecap="round" stroke-linejoin="round"/>
    <path d="M5.206,49.203 C10.376,47.022 14.302,46.017 19.637,44.367" fill-opacity="0" stroke="#4A4A4A" stroke-width="1" stroke-linecap="round" stroke-linejoin="round"/>
    <path d="M6.185,43.542 C9.344,43.401 9.523,44.873 10.302,47.434" fill-opacity="0" stroke="#4A4A4A" stroke-width="1" stroke-linecap="round" stroke-linejoin="round"/>
    <path d="M7.408,37.133 C11.151,36.657 10.239,38.008 10.587,40.357" fill-opacity="0" stroke="#4A4A4A" stroke-width="1" stroke-linecap="round" stroke-linejoin="round"/>
    <path d="M11.239,40.397 C15.251,39.655 14.596,40.998 13.971,43.66" fill-opacity="0" stroke="#4A4A4A" stroke-width="1" stroke-linecap="round" stroke-linejoin="round"/>
    <path d="M14.541,43.935 C16.578,42.532 17.414,43.889 18.862,44.368" fill-opacity="0" stroke="#4A4A4A" stroke-width="1" stroke-linecap="round" stroke-linejoin="round"/>
    <path d="M11.729,39.099 C21.1,28.773 29.443,17.252 39.081,7.332" fill-opacity="0" stroke="#A6A6A6" stroke-width="1" stroke-linecap="round" stroke-linejoin="round"/>
    <path d="M15.234,42.598 C23.561,30.811 33.907,20.302 43.158,9.416" fill-opacity="0" stroke="#8A8A8A" stroke-width="1" stroke-linecap="round" stroke-linejoin="round"/>
    <path d="M21.064,42.638 C24.802,39.643 27.287,35.667 30.032,31.904" fill-opacity="0" stroke="#515151" stroke-width="1" stroke-opacity="0.652" stroke-linecap="round" stroke-linejoin="round"/>
    <path d="M23.966,38.234 C30.76,29.741 37.477,21.383 44.992,13.387" fill-opacity="0" stroke="#515151" stroke-width="1" stroke-opacity="0.652" stroke-linecap="round" stroke-linejoin="round"/>
    <path d="M44.217,14.212 C38.084,22.283 31.771,30.276 25.466,38.234" fill-opacity="0" stroke="#515151" stroke-width="1" stroke-opacity="0.652" stroke-linecap="round" stroke-linejoin="round"/>
    <path d="M32.815,29.242 C29.275,34.687 24.328,39.264 19.241,43.317" fill-opacity="0" stroke="#515151" stroke-width="1" stroke-opacity="0.652" stroke-linecap="round" stroke-linejoin="round"/>
    <path d="M19.637,43.07 C21.619,41.296 23.637,39.586 25.105,37.251" fill-opacity="0" stroke="#515151" stroke-width="1" stroke-opacity="0.652" stroke-linecap="round" stroke-linejoin="round"/>
    <path d="M18.985,40.003 C18.985,41.026 18.985,42.048 18.985,43.07" fill-opacity="0" stroke="#515151" stroke-width="1" stroke-opacity="0.652" stroke-linecap="round" stroke-linejoin="round"/>
    <path d="M21.716,38.234 C21.617,39.556 21.723,40.911 21.92,42.166" fill-opacity="0" stroke="#515151" stroke-width="1" stroke-opacity="0.652" stroke-linecap="round" stroke-linejoin="round"/>
    <path d="M24.365,35.561 C24.086,36.464 24.435,38.402 24.447,38.627" fill-opacity="0" stroke="#515151" stroke-width="1" stroke-opacity="0.652" stroke-linecap="round" stroke-linejoin="round"/>
    <path d="M26.771,33.044 C26.647,33.901 26.822,34.977 26.852,35.679" fill-opacity="0" stroke="#515151" stroke-width="1" stroke-opacity="0.652" stroke-linecap="round" stroke-linejoin="round"/>
    <path d="M29.542,30.135 C29.472,31.079 29.382,32.026 29.298,32.966" fill-opacity="0" stroke="#515151" stroke-width="1" stroke-opacity="0.652" stroke-linecap="round" stroke-linejoin="round"/>
    <path d="M31.662,27.58 C31.589,28.186 31.709,28.8 31.744,29.388" fill-opacity="0" stroke="#515151" stroke-width="1" stroke-opacity="0.652" stroke-linecap="round" stroke-linejoin="round"/>
    <path d="M34.271,23.727 C34.137,24.759 34.139,25.796 34.108,26.833" fill-opacity="0" stroke="#515151" stroke-width="1" stroke-opacity="0.652" stroke-linecap="round" stroke-linejoin="round"/>
    <path d="M36.717,21.21 C36.551,21.838 36.635,22.932 36.635,23.333" fill-opacity="0" stroke="#515151" stroke-width="1" stroke-opacity="0.652" stroke-linecap="round" stroke-linejoin="round"/>
    <path d="M39.448,17.122 C39.238,18.093 39.157,19.085 39.04,20.07" fill-opacity="0" stroke="#515151" stroke-width="1" stroke-opacity="0.652" stroke-linecap="round" stroke-linejoin="round"/>
    <path d="M41.731,15.431 C41.668,16.217 41.596,17.007 41.527,17.79" fill-opacity="0" stroke="#515151" stroke-width="1" stroke-opacity="0.652" stroke-linecap="round" stroke-linejoin="round"/>
    <path d="M43.81,13.426 C43.656,13.886 43.62,14.369 43.524,14.841" fill-opacity="0" stroke="#515151" stroke-width="1" stroke-opacity="0.652" stroke-linecap="round" stroke-linejoin="round"/>
    <path d="M6.552,44.603 C6.278,45.66 5.843,46.677 5.533,47.709" fill-opacity="0" stroke="#515151" stroke-width="1" stroke-opacity="0.652" stroke-linecap="round" stroke-linejoin="round"/>
    <path d="M5.736,48.26 C6.621,47.456 7.69,46.964 8.753,46.491" fill-opacity="0" stroke="#515151" stroke-width="1" stroke-opacity="0.652" stroke-linecap="round" stroke-linejoin="round"/>
    <path d="M6.144,47.709 C6.578,46.889 6.931,46.035 7.285,45.193" fill-opacity="0" stroke="#515151" stroke-width="1" stroke-opacity="0.652" stroke-linecap="round" stroke-linejoin="round"/>
    <path d="M7.734,45.075 L7.775,45.115" fill-opacity="0" stroke="#515151" stroke-width="1" stroke-opacity="0.652" stroke-linecap="round" stroke-linejoin="round"/>
    <path d="M7.204,46.097 C7.168,46.245 6.457,46.989 6.592,47.12 C6.605,47.132 7.753,45.901 7.938,45.783 C8.813,45.22 5.727,47.343 5.696,47.434" fill-opacity="0" stroke="#515151" stroke-width="1" stroke-opacity="0.652" stroke-linecap="round" stroke-linejoin="round"/>
    <path d="M6.226,46.451 C6.111,46.704 5.981,46.949 5.859,47.198 C5.224,47.494 6.867,44.664 6.552,45.272 C5.461,47.376 6.523,47.206 6.878,47.473" fill-opacity="0" stroke="#515151" stroke-width="1" stroke-opacity="0.652" stroke-linecap="round" stroke-linejoin="round"/>
    <path d="M6.715,47.631 C6.513,47.228 5.42,48.772 5.533,48.338 C5.643,47.911 6.659,47.059 6.226,47.198 C5.724,47.359 4.958,48.783 5.125,48.299 C5.628,46.842 7.589,47.759 8.304,46.609 C8.655,46.046 7.889,44.375 7.408,44.839 C7.279,44.963 6.696,44.721 6.878,44.721 C7.614,44.721 8.916,45.391 8.916,46.333 C8.916,46.616 8.346,46.963 8.59,47.12 C9.148,47.478 8.86,46.594 8.671,46.412" fill-opacity="0" stroke="#515151" stroke-width="1" stroke-opacity="0.652" stroke-linecap="round" stroke-linejoin="round"/>
    <path d="M33.986,4.776 L33.945,4.894" fill-opacity="0" stroke="#515151" stroke-width="1" stroke-opacity="0.652" stroke-linecap="round" stroke-linejoin="round"/>
    <path d="M34.719,5.366 C36.3,4.975 39.244,5.134 39.244,7.214" fill-opacity="0" stroke="#515151" stroke-width="1" stroke-opacity="0.652" stroke-linecap="round" stroke-linejoin="round"/>
    <path d="M40.06,7.843 C41.812,7.612 42.785,8.26 43.321,9.809" fill-opacity="0" stroke="#515151" stroke-width="1" stroke-opacity="0.652" stroke-linecap="round" stroke-linejoin="round"/>
    <path d="M43.728,10.516 C44.967,11.547 45.522,12.635 45.522,14.134" fill-opacity="0" stroke="#515151" stroke-width="1" stroke-opacity="0.652" stroke-linecap="round" stroke-linejoin="round"/>
    <path d="M36.35,4.383 C35.14,4.789 37.081,4.315 36.962,4.344 C34.86,4.851 36.311,4.197 39,5.169 C39.303,5.279 38.706,4.787 38.592,4.658 C38.339,4.373 39.524,5.023 39.367,5.327 C39.156,5.733 37.713,4.58 38.184,4.58 C38.528,4.58 39.41,5.002 39.204,4.737 C38.908,4.357 37.51,4.483 37.858,4.147 C37.935,4.073 40.504,4.148 40.916,4.422 C41.178,4.598 41.821,5.72 42.098,5.72 C42.48,5.72 41.237,3.639 41.812,4.305 C42.117,4.657 43.022,5.484 42.546,5.484 C42.191,5.484 41.416,4.776 41.772,4.776 C42.213,4.776 42.9,6.028 42.505,5.838 C42.269,5.724 41.801,5.147 42.057,5.209 C42.445,5.302 43.033,6.425 42.75,6.152 C42.453,5.866 41.842,4.805 42.139,5.091 C42.556,5.493 43.349,7.04 42.995,6.585 C42.776,6.304 42.225,5.416 42.505,5.641 C42.638,5.748 43.182,6.821 43.28,6.821 C43.8,6.821 42.23,5.405 42.75,5.405 C43.346,5.405 43.565,7.513 43.565,6.939 C43.565,6.462 42.808,5.225 43.158,5.563 C43.182,5.587 44.07,7.514 44.095,7.489 C44.286,7.305 43.616,5.488 43.484,5.169 C43.148,4.361 43.71,8.09 44.462,7.607 C44.866,7.348 44.294,5.777 44.177,6.231 C43.95,7.104 44.656,9.68 44.951,8.826 C45.069,8.487 44.849,7.411 44.788,7.764 C44.699,8.278 44.917,8.867 44.992,9.376 C45.62,12.134 45.062,7.692 45.359,9.769 C45.373,9.871 45.592,11.303 45.726,11.303 C45.817,11.303 45.539,9.842 45.44,9.651 C45.188,9.164 45.589,10.735 45.726,11.263 C45.846,11.726 45.668,9.55 45.318,9.887 C44.958,10.235 45.79,11.781 45.563,11.342 C45.253,10.745 45.061,8.751 44.992,9.416 C44.548,13.693 46.208,9.966 44.747,9.966 C44.698,9.966 45.132,11.662 45.155,11.657 C45.414,11.594 45.03,11.156 44.951,10.91 C44.922,10.819 44.616,9.887 44.584,9.887 C44.522,9.887 44.728,11.421 44.87,11.421 C45.115,11.421 44.714,10.973 44.625,10.752 C44.515,10.478 44.127,8.865 43.688,8.865 C43.268,8.865 44.35,10.35 44.217,9.966 C43.955,9.207 40.497,5.405 39.937,5.405 C39.866,5.405 40.202,6.069 40.223,6.113 C40.469,6.635 41.318,5.803 40.63,6.467" fill-opacity="0" stroke="#515151" stroke-width="1" stroke-opacity="0.652" stroke-linecap="round" stroke-linejoin="round"/>
    <path d="M40.549,6.86 C38.628,6.877 42.012,7.855 43.198,8.236 C43.724,8.405 45.098,9.18 44.544,9.18 C43.446,9.18 41.223,5.573 39.978,4.973" fill-opacity="0" stroke="#515151" stroke-width="1" stroke-opacity="0.652" stroke-linecap="round" stroke-linejoin="round"/>
    <path d="M37.125,4.265 C36.483,4.338 35.797,4.262 35.168,4.383" fill-opacity="0" stroke="#515151" stroke-width="1" stroke-opacity="0.652" stroke-linecap="round" stroke-linejoin="round"/>
  </g>
</svg>
