<?xml version="1.0" encoding="UTF-8"?>
<!DOCTYPE svg PUBLIC "-//W3C//DTD SVG 1.1//EN" "http://www.w3.org/Graphics/SVG/1.1/DTD/svg11.dtd">
<svg version="1.1" xmlns="http://www.w3.org/2000/svg" xmlns:xlink="http://www.w3.org/1999/xlink" x="0" y="0" width="50" height="50" viewBox="0, 0, 50, 50">
  <g id="Layer_1">
    <path d="M19.14,17.969 C20.344,14.982 17.085,4.09 19.876,2.287 C21.338,1.343 30.677,0.906 31.353,2.216 C33.626,6.621 30.396,15.189 32.088,18.468 C33.899,21.977 47.537,15.759 48.199,21.391 C48.405,23.139 48.599,28.505 47.979,30.158 C46.802,33.295 33.339,28.733 31.941,31.085 C29.75,34.772 33.381,45.381 30.985,47.622 C28.851,49.618 21.789,49.405 19.288,47.337 C15.896,44.535 21.263,34.066 18.699,31.085 C15.857,27.78 3.471,34.435 2.073,28.733 C-2.393,10.515 19.508,23.671 19.508,16.829" fill="#FFFFFF"/>
    <path d="M29.782,32.96 C29.312,37.848 33.43,49.189 24.793,47.515 C22.722,47.114 20.873,46.9 19.749,45.019" fill-opacity="0" stroke="#C6C6C6" stroke-width="2" stroke-opacity="0.781" stroke-linecap="round" stroke-linejoin="round"/>
    <path d="M21.23,44.54 C34.662,51.818 28.19,34.679 30.351,30.872" fill-opacity="0" stroke="#C6C6C6" stroke-width="2" stroke-opacity="0.699" stroke-linecap="round" stroke-linejoin="round"/>
    <path d="M30.359,31.656 C38.309,23.847 50.726,40.709 47.382,21.804" fill-opacity="0" stroke="#C6C6C6" stroke-width="2" stroke-opacity="0.59" stroke-linecap="round" stroke-linejoin="round"/>
    <path d="M3.795,29.082 C8.736,31.596 16.015,26.892 20.626,30.835" fill-opacity="0" stroke="#C6C6C6" stroke-width="2" stroke-opacity="0.699" stroke-linecap="round" stroke-linejoin="round"/>
    <path d="M20.597,46.626 C20.568,47.038 20.849,47.407 20.965,47.766" fill-opacity="0" stroke="#9B9B9B" stroke-width="1" stroke-linecap="round" stroke-linejoin="round"/>
    <path d="M22.877,47.41 C22.98,47.833 23.234,48.199 23.392,48.55" fill-opacity="0" stroke="#9B9B9B" stroke-width="1" stroke-linecap="round" stroke-linejoin="round"/>
    <path d="M25.158,48.194 C25.284,48.644 25.599,49.002 25.82,49.406" fill-opacity="0" stroke="#9B9B9B" stroke-width="1" stroke-linecap="round" stroke-linejoin="round"/>
    <path d="M27.512,48.55 C27.586,48.669 27.659,48.788 27.733,48.907" fill-opacity="0" stroke="#9B9B9B" stroke-width="1" stroke-linecap="round" stroke-linejoin="round"/>
    <path d="M29.057,47.481 C29.207,47.771 29.472,48.034 29.646,48.265" fill-opacity="0" stroke="#9B9B9B" stroke-width="1" stroke-linecap="round" stroke-linejoin="round"/>
    <path d="M30.676,46.697 C30.658,46.969 30.921,46.887 31.043,46.982" fill-opacity="0" stroke="#9B9B9B" stroke-width="1" stroke-linecap="round" stroke-linejoin="round"/>
    <path d="M30.97,43.133 C31.11,43.81 31.195,44.53 31.264,45.2" fill-opacity="0" stroke="#9B9B9B" stroke-width="1" stroke-linecap="round" stroke-linejoin="round"/>
    <path d="M30.602,38.428 C30.727,39.186 30.835,39.957 30.97,40.709" fill-opacity="0" stroke="#9B9B9B" stroke-width="1" stroke-linecap="round" stroke-linejoin="round"/>
    <path d="M30.676,34.65 C30.756,35.788 30.794,36.937 30.896,38.072" fill-opacity="0" stroke="#9B9B9B" stroke-width="1" stroke-linecap="round" stroke-linejoin="round"/>
    <path d="M31.117,40.994 C31.092,41.951 31.29,42.908 31.411,43.846" fill-opacity="0" stroke="#9B9B9B" stroke-width="1" stroke-linecap="round" stroke-linejoin="round"/>
    <path d="M30.97,32.797 C31.112,33.245 30.872,33.652 30.823,34.08" fill-opacity="0" stroke="#9B9B9B" stroke-width="1" stroke-linecap="round" stroke-linejoin="round"/>
    <path d="M32.073,31.371 C31.95,31.623 32.024,31.894 32,32.155" fill-opacity="0" stroke="#9B9B9B" stroke-width="1" stroke-linecap="round" stroke-linejoin="round"/>
    <path d="M33.912,30.231 C36.284,30.439 38.738,30.451 41.122,30.587" fill-opacity="0" stroke="#9B9B9B" stroke-width="1" stroke-linecap="round" stroke-linejoin="round"/>
    <path d="M43.403,31.086 C43.476,31.086 43.55,31.086 43.623,31.086" fill-opacity="0" stroke="#9B9B9B" stroke-width="1" stroke-linecap="round" stroke-linejoin="round"/>
    <path d="M45.242,30.872 C45.29,31.137 45.59,31.161 45.757,31.3" fill-opacity="0" stroke="#9B9B9B" stroke-width="1" stroke-linecap="round" stroke-linejoin="round"/>
    <path d="M46.566,30.587 C46.622,31.033 47.244,31.483 47.375,31.656" fill-opacity="0" stroke="#9B9B9B" stroke-width="1" stroke-linecap="round" stroke-linejoin="round"/>
    <path d="M47.67,29.518 C47.68,29.795 47.817,30.041 47.89,30.302" fill-opacity="0" stroke="#9B9B9B" stroke-width="1" stroke-linecap="round" stroke-linejoin="round"/>
    <path d="M21.339,32.163 C22.187,35.984 19.276,39.895 19.969,43.584" fill-opacity="0" stroke="#C6C6C6" stroke-width="2" stroke-opacity="0.699" stroke-linecap="round" stroke-linejoin="round"/>
    <path d="M47.817,23.031 C47.923,24.999 47.845,26.985 47.964,28.948" fill-opacity="0" stroke="#9B9B9B" stroke-width="1" stroke-linecap="round" stroke-linejoin="round"/>
    <path d="M31.482,4.804 C25.82,32.163 43.074,17.66 46.614,21.804" fill-opacity="0" stroke="#C6C6C6" stroke-width="2" stroke-opacity="0.699" stroke-linecap="round" stroke-linejoin="round"/>
    <path d="M4.633,30.373 C4.58,30.419 4.904,30.702 4.927,30.73" fill-opacity="0" stroke="#9B9B9B" stroke-width="1" stroke-linecap="round" stroke-linejoin="round"/>
    <path d="M3.466,27.966 C2.077,16.141 13.648,22.349 20.595,19.785" fill-opacity="0" stroke="#C6C6C6" stroke-width="2" stroke-opacity="0.699" stroke-linecap="round" stroke-linejoin="round"/>
    <path d="M20.595,19.785 C25.675,14.419 12.074,-0.455 30.824,3.689" fill-opacity="0" stroke="#C6C6C6" stroke-width="2" stroke-opacity="0.699" stroke-linecap="round" stroke-linejoin="round"/>
    <path d="M6.545,30.587 C6.624,30.693 6.644,30.826 6.693,30.943" fill-opacity="0" stroke="#9B9B9B" stroke-width="1" stroke-linecap="round" stroke-linejoin="round"/>
    <path d="M9.267,30.444 C11.725,29.94 14.481,29.732 16.992,29.732" fill-opacity="0" stroke="#9B9B9B" stroke-width="1" stroke-linecap="round" stroke-linejoin="round"/>
    <path d="M19.64,18.469 C20.844,15.482 17.585,4.59 20.376,2.787 C21.838,1.843 31.177,1.406 31.853,2.716 C34.126,7.121 30.896,15.689 32.588,18.968 C34.399,22.477 48.037,16.259 48.699,21.891 C48.905,23.639 49.099,29.005 48.479,30.658 C47.302,33.795 33.839,29.233 32.441,31.585 C30.25,35.272 33.636,46.626 31.485,48.122 C29.014,49.842 22.289,49.904 19.788,47.837 C16.396,45.035 21.763,34.566 19.199,31.585 C16.357,28.28 3.971,34.935 2.573,29.233 C-1.893,11.015 20.008,24.171 20.008,17.329" fill-opacity="0" stroke="#808080" stroke-width="1.5" stroke-linecap="round" stroke-linejoin="round"/>
    <path d="M30.602,30.231 C40.523,24.985 47.817,36.572 46.614,23.132" fill-opacity="0" stroke="#C6C6C6" stroke-width="2" stroke-opacity="0.699" stroke-linecap="round" stroke-linejoin="round"/>
    <path d="M20.045,47.039 C23.434,49.006 30.554,50.659 31.208,45.317" fill-opacity="0" stroke="#808080" stroke-width="2" stroke-opacity="0.311" stroke-linecap="round" stroke-linejoin="round"/>
    <path d="M19.734,46.852 C22.893,48.862 29.895,50.78 31.291,45.794" fill-opacity="0" stroke="#808080" stroke-width="2" stroke-opacity="0.311" stroke-linecap="round" stroke-linejoin="round"/>
    <path d="M29.921,48.263 C30.601,47.755 30.89,47.038 31.229,46.313" fill-opacity="0" stroke="#808080" stroke-width="2" stroke-opacity="0.311" stroke-linecap="round" stroke-linejoin="round"/>
    <path d="M30.336,48.118 C30.825,47.707 31.06,47.107 31.332,46.562" fill-opacity="0" stroke="#808080" stroke-width="2" stroke-opacity="0.311" stroke-linecap="round" stroke-linejoin="round"/>
    <path d="M41.72,30.712 C43.653,31.08 45.646,31.577 47.419,30.6" fill-opacity="0" stroke="#808080" stroke-width="2" stroke-opacity="0.311" stroke-linecap="round" stroke-linejoin="round"/>
    <path d="M41.645,30.767 C43.571,31.025 45.542,31.174 47.438,30.749" fill-opacity="0" stroke="#808080" stroke-width="2" stroke-opacity="0.311" stroke-linecap="round" stroke-linejoin="round"/>
    <path d="M41.626,31.01 C43.637,31.203 46.067,31.566 47.829,30.544" fill-opacity="0" stroke="#808080" stroke-width="2" stroke-opacity="0.311" stroke-linecap="round" stroke-linejoin="round"/>
    <path d="M42.614,31.401 C44.566,31.718 46.373,31.429 47.754,30.116" fill-opacity="0" stroke="#808080" stroke-width="2" stroke-opacity="0.311" stroke-linecap="round" stroke-linejoin="round"/>
    <path d="M47.345,30.078 C47.548,29.673 47.657,29.248 47.81,28.83" fill-opacity="0" stroke="#808080" stroke-width="2" stroke-opacity="0.311" stroke-linecap="round" stroke-linejoin="round"/>
    <path d="M47.326,30.097 C47.529,29.718 47.648,29.287 47.792,28.886" fill-opacity="0" stroke="#808080" stroke-width="2" stroke-opacity="0.311" stroke-linecap="round" stroke-linejoin="round"/>
    <path d="M41.645,30.991 C40.95,30.808 40.193,30.971 39.484,31.01" fill-opacity="0" stroke="#808080" stroke-width="2" stroke-opacity="0.311" stroke-linecap="round" stroke-linejoin="round"/>
    <path d="M40.751,30.823 C40.387,30.596 39.978,30.78 39.596,30.767" fill-opacity="0" stroke="#808080" stroke-width="2" stroke-opacity="0.311" stroke-linecap="round" stroke-linejoin="round"/>
    <path d="M4.994,30.79 C6.173,31.077 7.36,30.667 8.537,30.531" fill-opacity="0" stroke="#808080" stroke-width="2" stroke-opacity="0.311" stroke-linecap="round" stroke-linejoin="round"/>
    <path d="M4.735,30.79 C5.685,30.963 6.665,30.927 7.63,30.963" fill-opacity="0" stroke="#808080" stroke-width="2" stroke-opacity="0.311" stroke-linecap="round" stroke-linejoin="round"/>
    <path d="M4.864,30.92 C5.645,30.963 6.47,31.023 7.241,31.049" fill-opacity="0" stroke="#808080" stroke-width="2" stroke-opacity="0.311" stroke-linecap="round" stroke-linejoin="round"/>
    <path d="M5.34,31.049 C6.44,31.092 7.531,30.962 8.623,30.92" fill-opacity="0" stroke="#808080" stroke-width="2" stroke-opacity="0.311" stroke-linecap="round" stroke-linejoin="round"/>
    <path d="M6.593,31.093 C8.311,31.508 4.237,30.671 3.222,30.142" fill-opacity="0" stroke="#808080" stroke-width="2" stroke-opacity="0.311" stroke-linecap="round" stroke-linejoin="round"/>
  </g>
</svg>
